<svg width="40" height="40" viewBox="0 0 40 40" fill="none" xmlns="http://www.w3.org/2000/svg">
<path d="M39.9015 37.386L38.204 31.3959C37.8694 30.2155 37.9302 28.953 38.4109 27.8243C39.5243 25.211 40.0962 22.3149 39.9867 19.2726C39.6095 8.71005 30.9271 0.191834 20.3616 0.00321604C9.0294 -0.19757 -0.197569 9.02948 0.00321601 20.3617C0.191832 30.9274 8.70997 39.6099 19.2694 39.9871C21.9283 40.0814 24.4746 39.6555 26.8201 38.8037C28.688 38.1253 30.7172 38.0097 32.6277 38.5542L37.3796 39.905C38.9159 40.343 40.3366 38.9223 39.9015 37.386ZM11.0646 19.9997C11.0646 15.0652 15.0651 11.0647 19.9995 11.0647C24.934 11.0647 28.9344 15.0652 28.9344 19.9997C28.9344 24.9342 24.934 28.9347 19.9995 28.9347C15.0651 28.9347 11.0646 24.9342 11.0646 19.9997Z" fill="url(#paint0_linear)"/>
<path d="M37.9076 28.9652C37.9076 28.9652 37.8376 28.7419 37.7006 28.3443C36.6348 25.3104 31.4522 12.1744 21.2058 11C25.5754 11.5903 28.9432 15.3491 28.9432 19.897C28.9432 24.8577 24.939 28.8796 20 28.8796V40C22.3964 40 24.6954 39.581 26.8269 38.8042C28.6965 38.1221 30.7275 38.0059 32.6398 38.5534L37.3961 39.9113C38.9338 40.3487 40.3558 38.9234 39.9204 37.3759L38.2213 31.3538C38.0203 30.6473 37.9655 29.9072 38.0538 29.1885L37.9076 28.9652Z" fill="url(#paint1_linear)"/>
<defs>
<linearGradient id="paint0_linear" x1="4.85207" y1="1.35992e-05" x2="40.3744" y2="2.97031" gradientUnits="userSpaceOnUse">
<stop stop-color="#DF5950"/>
<stop offset="1" stop-color="#451046"/>
</linearGradient>
<linearGradient id="paint1_linear" x1="22.426" y1="11" x2="40.2521" y2="12.028" gradientUnits="userSpaceOnUse">
<stop stop-color="#DF5950"/>
<stop offset="1" stop-color="#451046"/>
</linearGradient>
</defs>
</svg>
